<svg xmlns="http://www.w3.org/2000/svg" width="192" height="192" viewBox="0 0 192 192" fill="none">
  <!-- 深蓝色背景 -->
  <rect width="192" height="192" rx="32" fill="#1E293B"/>
  
  <!-- 居中的JZ图标 -->
  <g transform="translate(48 48)">
    <!-- 左侧J字母 - 居中设计 -->
    <path d="M36 32V88H60V32H36Z" fill="white"/>
    <path d="M36 88V104H60V88H36Z" fill="white"/>
    
    <!-- 右侧Z字母 - 居中设计 -->
    <path d="M68 32L92 32L68 56L92 80H68V56H52V80H36V32H52V56H68V32Z" fill="white"/>
    
    <!-- 环绕的半圆 - 居中设计 -->
    <path d="M68 40L92 40L116 48L92 56L68 56V40Z" fill="none" stroke="white" stroke-width="6" stroke-linecap="round" stroke-linejoin="round"/>
    <path d="M68 56L92 56L116 64L92 72L68 72V56Z" fill="none" stroke="white" stroke-width="6" stroke-linecap="round" stroke-linejoin="round"/>
    
    <!-- 底部弧线 - 居中设计 -->
    <path d="M36 104L60 112L92 112L116 104" fill="none" stroke="white" stroke-width="6" stroke-linecap="round" stroke-linejoin="round"/>
  </g>
</svg>